<svg xmlns="http://www.w3.org/2000/svg" xmlns:xlink="http://www.w3.org/1999/xlink" width="500" zoomAndPan="magnify" viewBox="0 0 375 374.999991" height="500" preserveAspectRatio="xMidYMid meet" version="1.0"><defs><clipPath id="2bb5b93047"><path d="M 161.066406 88.042969 L 340.839844 88.042969 L 340.839844 172.578125 L 161.066406 172.578125 Z M 161.066406 88.042969 " clip-rule="nonzero"/></clipPath><clipPath id="dcf9b63663"><path d="M 0.0625 88.265625 L 179.933594 88.265625 L 179.933594 172.640625 L 0.0625 172.640625 Z M 0.0625 88.265625 " clip-rule="nonzero"/></clipPath><clipPath id="117b23baf8"><path d="M 45 0.078125 L 259 0.078125 L 259 57 L 45 57 Z M 45 0.078125 " clip-rule="nonzero"/></clipPath><clipPath id="dfb8510dd2"><path d="M 56 57 L 326.191406 57 L 326.191406 94 L 56 94 Z M 56 57 " clip-rule="nonzero"/></clipPath><clipPath id="b9ae39ce1a"><path d="M 280.175781 113.367188 L 310.753906 113.367188 L 310.753906 145.746094 L 280.175781 145.746094 Z M 280.175781 113.367188 " clip-rule="nonzero"/></clipPath><clipPath id="b5d89ccaaf"><path d="M 294 113.367188 L 296 113.367188 L 296 114 L 294 114 Z M 294 113.367188 " clip-rule="nonzero"/></clipPath><clipPath id="8d4ed5aa11"><path d="M 299 144 L 301 144 L 301 145.746094 L 299 145.746094 Z M 299 144 " clip-rule="nonzero"/></clipPath><clipPath id="8e0717587c"><path d="M 29 115 L 58.609375 115 L 58.609375 146 L 29 146 Z M 29 115 " clip-rule="nonzero"/></clipPath><clipPath id="da8f3c04dc"><path d="M 42 114.738281 L 44 114.738281 L 44 116 L 42 116 Z M 42 114.738281 " clip-rule="nonzero"/></clipPath><clipPath id="ae54195e95"><rect x="0" width="341" y="0" height="173"/></clipPath></defs><rect x="-37.5" width="450" fill="#ffffff" y="-37.499999" height="449.999989" fill-opacity="1"/><rect x="-37.5" width="450" fill="#022135" y="-37.499999" height="449.999989" fill-opacity="1"/><g transform="matrix(1, 0, 0, 1, 17, 112)"><g clip-path="url(#ae54195e95)"><g clip-path="url(#2bb5b93047)"><path fill="#ffffff" d="M 161.167969 118.007812 L 257.863281 112.054688 L 260.222656 111.90625 L 271.847656 111.1875 L 260.863281 110.339844 L 261.765625 108.152344 C 262.011719 107.5625 262.628906 107.21875 263.257812 107.320312 L 265.15625 107.636719 C 271.394531 108.667969 276.789062 103.246094 275.714844 97.011719 L 275.394531 95.121094 C 275.285156 94.488281 275.625 93.867188 276.214844 93.625 L 288.332031 88.566406 C 288.917969 88.320312 289.597656 88.515625 289.96875 89.03125 L 291.089844 90.601562 C 294.769531 95.742188 302.421875 95.722656 306.070312 90.558594 L 307.179688 88.988281 C 307.550781 88.464844 308.230469 88.269531 308.816406 88.511719 L 320.960938 93.503906 C 321.550781 93.746094 321.894531 94.363281 321.792969 94.992188 L 321.476562 96.890625 C 320.441406 103.128906 325.867188 108.523438 332.09375 107.457031 L 333.992188 107.128906 C 334.621094 107.023438 335.238281 107.363281 335.484375 107.949219 L 340.546875 120.066406 C 340.789062 120.65625 340.597656 121.335938 340.078125 121.703125 L 338.511719 122.824219 C 333.371094 126.503906 333.390625 134.15625 338.554688 137.808594 L 340.125 138.917969 C 340.644531 139.285156 340.839844 139.964844 340.597656 140.554688 L 335.609375 152.695312 C 335.367188 153.289062 334.746094 153.632812 334.117188 153.527344 L 332.222656 153.210938 C 325.984375 152.175781 320.589844 157.605469 321.65625 163.832031 L 321.980469 165.730469 C 322.089844 166.355469 321.746094 166.980469 321.15625 167.226562 L 309.042969 172.28125 C 308.453125 172.527344 307.773438 172.332031 307.402344 171.8125 L 306.285156 170.246094 C 302.605469 165.105469 294.957031 165.128906 291.304688 170.289062 L 290.195312 171.859375 C 289.824219 172.382812 289.144531 172.578125 288.554688 172.335938 L 276.414062 167.34375 C 275.824219 167.101562 275.480469 166.484375 275.585938 165.855469 L 275.902344 163.957031 C 276.933594 157.71875 271.507812 152.324219 265.277344 153.390625 L 263.378906 153.71875 C 262.75 153.824219 262.132812 153.484375 261.886719 152.898438 L 260.507812 149.589844 C 260.53125 149.644531 270.183594 149.007812 270.53125 148.984375 L 260.507812 148.007812 L 259.824219 147.945312 L 207.273438 142.839844 L 278.199219 142.839844 C 280.082031 145.960938 282.601562 148.523438 285.519531 150.4375 C 291.945312 154.660156 300.285156 155.71875 307.914062 152.535156 C 320.121094 147.4375 325.890625 133.40625 320.796875 121.199219 C 315.703125 108.984375 301.667969 103.21875 289.460938 108.3125 C 288.097656 108.882812 286.816406 109.5625 285.621094 110.339844 C 282.539062 112.339844 280.027344 114.980469 278.199219 118.007812 L 161.167969 118.007812 " fill-opacity="1" fill-rule="nonzero"/></g><path fill="#ffffff" d="M 296.945312 110.179688 C 297.5 110.132812 298.066406 110.109375 298.632812 110.109375 C 309.945312 110.109375 319.117188 119.28125 319.117188 130.589844 C 319.117188 141.902344 309.945312 151.070312 298.632812 151.070312 C 298.066406 151.070312 297.5 151.046875 296.945312 151.003906 C 307.46875 150.148438 315.742188 141.332031 315.742188 130.589844 C 315.742188 119.847656 307.46875 111.035156 296.945312 110.179688 " fill-opacity="1" fill-rule="nonzero"/><g clip-path="url(#dcf9b63663)"><path fill="#ffffff" d="M 179.832031 142.835938 L 83.136719 148.792969 L 80.777344 148.941406 L 69.152344 149.65625 L 80.136719 150.507812 L 79.234375 152.695312 C 78.988281 153.285156 78.371094 153.628906 77.742188 153.527344 L 75.84375 153.210938 C 69.605469 152.175781 64.210938 157.597656 65.285156 163.832031 L 65.605469 165.726562 C 65.714844 166.355469 65.375 166.976562 64.785156 167.222656 L 52.667969 172.277344 C 52.082031 172.523438 51.402344 172.332031 51.03125 171.8125 L 49.910156 170.246094 C 46.230469 165.105469 38.578125 165.125 34.929688 170.285156 L 33.820312 171.855469 C 33.449219 172.382812 32.769531 172.578125 32.183594 172.335938 L 20.039062 167.34375 C 19.449219 167.101562 19.105469 166.484375 19.207031 165.851562 L 19.523438 163.957031 C 20.558594 157.71875 15.132812 152.324219 8.90625 153.390625 L 7.007812 153.71875 C 6.378906 153.824219 5.761719 153.484375 5.515625 152.894531 L 0.453125 140.78125 C 0.210938 140.191406 0.402344 139.507812 0.921875 139.140625 L 2.488281 138.019531 C 7.628906 134.34375 7.609375 126.691406 2.445312 123.035156 L 0.875 121.929688 C 0.355469 121.5625 0.160156 120.882812 0.402344 120.289062 L 5.390625 108.152344 C 5.632812 107.558594 6.253906 107.210938 6.882812 107.320312 L 8.777344 107.632812 C 15.015625 108.667969 20.410156 103.242188 19.34375 97.011719 L 19.019531 95.113281 C 18.910156 94.488281 19.253906 93.867188 19.84375 93.621094 L 31.957031 88.566406 C 32.546875 88.320312 33.226562 88.511719 33.597656 89.03125 L 34.714844 90.597656 C 38.394531 95.738281 46.042969 95.714844 49.695312 90.558594 L 50.804688 88.988281 C 51.175781 88.464844 51.855469 88.269531 52.445312 88.507812 L 64.585938 93.503906 C 65.175781 93.742188 65.519531 94.363281 65.414062 94.992188 L 65.097656 96.890625 C 64.066406 103.128906 69.492188 108.523438 75.722656 107.453125 L 77.621094 107.125 C 78.25 107.019531 78.867188 107.359375 79.113281 107.949219 L 80.492188 111.257812 C 80.46875 111.199219 70.816406 111.839844 70.46875 111.863281 L 80.492188 112.835938 L 81.175781 112.902344 L 133.726562 118.007812 L 62.800781 118.007812 C 60.917969 114.886719 58.398438 112.320312 55.480469 110.40625 C 49.054688 106.1875 40.714844 105.125 33.085938 108.3125 C 20.878906 113.410156 15.109375 127.4375 20.203125 139.648438 C 25.296875 151.859375 39.332031 157.628906 51.539062 152.53125 C 52.902344 151.964844 54.183594 151.285156 55.378906 150.507812 C 58.460938 148.507812 60.972656 145.867188 62.800781 142.835938 L 179.832031 142.835938 " fill-opacity="1" fill-rule="nonzero"/></g><path fill="#ffffff" d="M 44.054688 150.667969 C 43.5 150.710938 42.933594 150.734375 42.367188 150.734375 C 31.054688 150.734375 21.882812 141.566406 21.882812 130.257812 C 21.882812 118.945312 31.054688 109.773438 42.367188 109.773438 C 42.933594 109.773438 43.5 109.796875 44.054688 109.84375 C 33.53125 110.699219 25.257812 119.511719 25.257812 130.257812 C 25.257812 140.996094 33.53125 149.8125 44.054688 150.667969 " fill-opacity="1" fill-rule="nonzero"/><g clip-path="url(#117b23baf8)"><path fill="#ff66c4" d="M 171.789062 0.296875 C 123.960938 0.0742188 82.820312 7.667969 76.886719 8.417969 C 67.394531 9.621094 64.277344 16.148438 64.277344 16.148438 L 45.886719 56.46875 C 49.136719 56.074219 53.328125 55.566406 58.296875 54.960938 C 59.417969 -21.554688 252.472656 8 258.941406 12.308594 C 231.589844 3.382812 200.484375 0.433594 171.789062 0.296875 Z M 171.789062 0.296875 " fill-opacity="1" fill-rule="nonzero"/></g><path fill="#ff66c4" d="M 128.894531 10.953125 C 128.894531 10.953125 178.992188 2.355469 258.25 16.5625 C 257.503906 15.8125 273.578125 29.273438 282.175781 56.9375 C 281.804688 56.566406 68.707031 38.246094 7.019531 86.472656 C 8.140625 84.976562 33.5625 58.433594 109.828125 51.703125 C 186.097656 44.976562 276.945312 62.546875 266.101562 36.75 C 255.257812 10.953125 196.191406 10.953125 128.894531 10.953125 Z M 128.894531 10.953125 " fill-opacity="1" fill-rule="nonzero"/><path fill="#ff66c4" d="M 47.019531 56.097656 L 40.570312 62.078125 C 40.570312 62.078125 36.273438 56.5625 21.597656 57.125 C 6.925781 57.6875 14.960938 41.421875 23.65625 41.234375 C 32.347656 41.050781 40.761719 39.554688 40.105469 44.039062 C 39.449219 48.527344 39.355469 54.414062 38.046875 54.976562 C 36.738281 55.535156 38.140625 42.171875 27.300781 44.226562 C 16.457031 46.285156 18.609375 50.675781 21.320312 51.703125 C 24.027344 52.730469 27.957031 50.117188 31.226562 53.949219 C 34.496094 57.78125 44.125 59.835938 47.019531 56.097656 Z M 47.019531 56.097656 " fill-opacity="1" fill-rule="nonzero"/><path fill="#ff66c4" d="M 281.507812 56.753906 L 287.957031 62.738281 C 287.957031 62.738281 292.257812 57.222656 306.929688 57.78125 C 321.605469 58.34375 313.566406 42.082031 304.875 41.894531 C 296.183594 41.707031 287.769531 40.210938 288.425781 44.699219 C 289.078125 49.183594 289.171875 55.074219 290.480469 55.632812 C 291.789062 56.195312 290.386719 42.828125 301.230469 44.886719 C 312.070312 46.941406 309.921875 51.335938 307.210938 52.363281 C 304.5 53.390625 300.574219 50.773438 297.304688 54.605469 C 294.03125 58.4375 284.40625 60.492188 281.507812 56.753906 Z M 281.507812 56.753906 " fill-opacity="1" fill-rule="nonzero"/><g clip-path="url(#dfb8510dd2)"><path fill="#ff66c4" d="M 176.292969 57.6875 C 139.976562 57.808594 100.25 61.789062 56.414062 75.070312 L 56.488281 75.058594 C 123.902344 58.910156 201.8125 59.246094 257.746094 63.292969 C 257.5625 63.300781 257.476562 63.300781 257.285156 63.308594 C 249.789062 63.691406 245.246094 64.796875 235.273438 65.6875 C 225.296875 66.578125 215.269531 67.714844 207.554688 69.105469 C 203.695312 69.800781 200.417969 70.558594 197.992188 71.386719 C 196.777344 71.800781 195.777344 72.238281 195.007812 72.707031 C 194.242188 73.175781 193.679688 73.679688 193.449219 74.339844 C 193.210938 75.019531 193.515625 75.746094 194.078125 76.273438 C 264.984375 119.808594 313.339844 37.238281 325 93.242188 C 325.550781 93.207031 326.09375 93.171875 326.613281 93.160156 C 324.230469 76.351562 315.570312 72.210938 312.179688 66.554688 C 311.121094 64.796875 309.71875 63.96875 308.285156 63.835938 C 306.847656 63.707031 305.425781 64.226562 304.167969 64.917969 C 294.890625 71.871094 283.59375 76.21875 272.78125 78.265625 C 261.53125 80.292969 248.800781 81.117188 236.914062 81.105469 C 179.734375 70.804688 247.039062 66.226562 275.730469 63.449219 C 245.515625 61.296875 212.605469 57.5625 176.292969 57.6875 Z M 176.292969 57.6875 " fill-opacity="1" fill-rule="nonzero"/></g><g clip-path="url(#b9ae39ce1a)"><path fill="#ffffff" d="M 309.429688 131.324219 C 308.472656 130.539062 307.351562 129.921875 306.285156 129.300781 C 305.734375 128.984375 305.175781 128.667969 304.609375 128.367188 C 305.277344 127.589844 305.890625 126.777344 306.464844 125.914062 C 307.730469 123.984375 309.191406 121.269531 307.503906 119.132812 C 306.722656 118.136719 305.5 117.914062 304.332031 118.296875 C 303.074219 118.707031 301.890625 119.449219 300.746094 120.097656 C 300.175781 120.421875 299.613281 120.761719 299.046875 121.113281 C 299.046875 121.113281 299.046875 121.113281 299.042969 121.105469 C 298.648438 120.027344 298.183594 118.96875 297.640625 117.933594 C 296.585938 115.96875 294.988281 113.59375 292.417969 113.949219 C 290.78125 114.179688 290.210938 115.433594 290.007812 116.847656 C 289.8125 116.824219 289.609375 116.832031 289.417969 116.882812 C 288.785156 117.046875 288.492188 117.648438 288.421875 118.265625 C 288.359375 118.859375 288.796875 119.34375 289.285156 119.613281 C 289.476562 119.722656 289.6875 119.8125 289.902344 119.875 C 289.902344 120.894531 289.925781 121.925781 289.984375 122.953125 C 289.222656 122.785156 288.46875 122.648438 287.707031 122.515625 C 286.414062 122.292969 285.011719 121.980469 283.683594 122.074219 C 282.554688 122.160156 281.363281 122.640625 280.792969 123.6875 C 280.175781 124.824219 280.582031 126.097656 281.292969 127.082031 C 282.636719 128.933594 284.757812 130.289062 286.691406 131.457031 C 286.363281 131.824219 286.039062 132.199219 285.726562 132.574219 C 285.574219 132.75 285.421875 132.933594 285.269531 133.121094 C 285.226562 133.09375 285.1875 133.074219 285.144531 133.054688 C 284.648438 132.847656 284.046875 132.796875 283.550781 133.023438 C 282.980469 133.277344 282.65625 134 282.886719 134.589844 C 283.011719 134.914062 283.246094 135.199219 283.5 135.453125 C 283.4375 135.554688 283.375 135.65625 283.316406 135.757812 C 282.722656 136.824219 282.460938 138.195312 283.113281 139.304688 C 283.703125 140.292969 284.839844 140.648438 285.9375 140.609375 C 287.054688 140.574219 288.152344 140.230469 289.183594 139.824219 C 290.351562 139.367188 291.492188 138.828125 292.597656 138.238281 C 292.699219 138.179688 292.800781 138.128906 292.902344 138.074219 C 293.160156 138.828125 293.441406 139.578125 293.734375 140.3125 C 294.226562 141.5625 294.683594 142.949219 295.589844 143.964844 C 296.347656 144.808594 297.5625 145.355469 298.691406 145.007812 C 299.6875 144.703125 300.328125 143.828125 300.722656 142.90625 C 301.515625 141.074219 301.675781 138.910156 301.71875 136.894531 C 302.53125 137.019531 303.347656 137.117188 304.171875 137.152344 C 304.351562 137.722656 304.800781 138.210938 305.367188 138.421875 C 306.171875 138.71875 307.167969 138.3125 307.492188 137.503906 C 307.496094 137.503906 307.496094 137.503906 307.496094 137.496094 C 307.636719 137.304688 307.710938 137.097656 307.726562 136.878906 C 309.140625 136.507812 310.363281 135.699219 310.65625 134.097656 C 310.839844 132.972656 310.273438 132.007812 309.429688 131.324219 Z M 293.503906 136.519531 C 293.277344 135.816406 293.058594 135.105469 292.855469 134.394531 C 293.777344 134.738281 294.703125 135.058594 295.628906 135.359375 C 294.917969 135.738281 294.207031 136.132812 293.503906 136.519531 Z M 290.96875 124.265625 C 291.84375 124.46875 292.71875 124.695312 293.582031 124.9375 C 292.792969 125.558594 292.019531 126.207031 291.265625 126.871094 C 291.136719 126.003906 291.042969 125.132812 290.96875 124.265625 Z M 299.6875 125.347656 C 299.757812 125.597656 299.820312 125.84375 299.878906 126.097656 C 298.496094 125.507812 297.09375 124.980469 295.671875 124.503906 C 296.664062 123.75 297.679688 123.035156 298.722656 122.363281 C 299.097656 123.34375 299.414062 124.347656 299.6875 125.347656 Z M 300.152344 127.226562 C 300.378906 128.230469 300.582031 129.230469 300.78125 130.238281 C 300.785156 130.644531 300.78125 131.050781 300.765625 131.464844 C 300.765625 131.464844 300.765625 131.464844 300.765625 131.46875 C 299.703125 132.492188 298.585938 133.457031 297.457031 134.414062 C 297.089844 134.617188 296.714844 134.804688 296.339844 134.996094 C 295.109375 134.640625 293.890625 134.230469 292.6875 133.804688 C 292.171875 131.921875 291.761719 130.019531 291.441406 128.09375 C 292.496094 127.113281 293.582031 126.171875 294.703125 125.28125 C 296.554688 125.824219 298.375 126.472656 300.152344 127.226562 Z M 291.460938 133.183594 C 290.414062 132.546875 289.394531 131.851562 288.339844 131.230469 C 288.335938 131.222656 288.328125 131.222656 288.320312 131.214844 C 289.0625 130.417969 289.824219 129.636719 290.605469 128.882812 C 290.832031 130.335938 291.121094 131.769531 291.460938 133.183594 Z M 300.746094 132.261719 C 300.714844 133.074219 300.683594 133.878906 300.683594 134.6875 C 300.683594 135.109375 300.683594 135.535156 300.671875 135.960938 C 299.5 135.777344 298.335938 135.523438 297.203125 135.226562 C 298.414062 134.273438 299.601562 133.296875 300.746094 132.261719 Z M 300.773438 127.492188 C 301.648438 127.875 302.503906 128.28125 303.355469 128.71875 C 302.726562 129.464844 302.066406 130.183594 301.375 130.875 C 301.199219 129.738281 301 128.609375 300.773438 127.492188 Z M 302.296875 120.238281 C 303.292969 119.691406 304.628906 118.753906 305.824219 119.007812 C 306.863281 119.234375 307.394531 120.402344 307.402344 121.378906 C 307.40625 122.621094 306.765625 123.769531 306.152344 124.804688 C 305.492188 125.914062 304.742188 126.984375 303.933594 128.007812 C 302.816406 127.421875 301.679688 126.878906 300.53125 126.375 C 300.46875 126.089844 300.398438 125.800781 300.328125 125.515625 C 300.042969 124.316406 299.71875 123.128906 299.332031 121.976562 C 300.304688 121.359375 301.289062 120.789062 302.296875 120.238281 Z M 290.820312 122.152344 C 290.789062 121.410156 290.777344 120.675781 290.769531 119.9375 C 290.921875 119.894531 291.070312 119.824219 291.203125 119.714844 C 291.710938 119.496094 292.164062 119.011719 292.007812 118.417969 C 291.9375 118.15625 291.785156 117.921875 291.609375 117.726562 C 291.519531 117.628906 291.421875 117.539062 291.320312 117.464844 C 291.289062 117.4375 291.253906 117.414062 291.214844 117.382812 L 291.1875 117.355469 C 291.175781 117.34375 291.15625 117.332031 291.144531 117.324219 C 291.085938 117.28125 291.03125 117.242188 290.96875 117.203125 C 290.921875 117.171875 290.878906 117.148438 290.828125 117.121094 C 290.878906 116.417969 291.035156 115.714844 291.542969 115.25 C 292.316406 114.546875 293.5625 114.71875 294.386719 115.226562 C 294.964844 115.574219 295.425781 116.070312 295.8125 116.613281 C 295.820312 116.621094 295.820312 116.628906 295.824219 116.628906 C 295.40625 116.394531 294.96875 116.175781 294.527344 115.992188 C 294.417969 115.949219 294.339844 116.132812 294.449219 116.175781 C 294.976562 116.410156 295.488281 116.691406 295.972656 117.007812 C 296.054688 117.058594 296.128906 117.121094 296.210938 117.179688 C 296.339844 117.375 296.460938 117.578125 296.574219 117.78125 C 297 118.503906 297.390625 119.246094 297.746094 120.015625 C 297.746094 120.015625 297.746094 120.019531 297.753906 120.019531 C 297.660156 119.953125 297.570312 119.882812 297.476562 119.8125 C 296.726562 119.285156 295.933594 118.855469 295.078125 118.535156 C 295.03125 118.519531 295 118.59375 295.046875 118.621094 C 295.820312 119.023438 296.582031 119.480469 297.292969 120.003906 C 297.542969 120.1875 297.785156 120.382812 298.019531 120.585938 C 298.160156 120.890625 298.285156 121.199219 298.414062 121.511719 C 297.113281 122.335938 295.839844 123.222656 294.609375 124.15625 C 293.625 123.851562 292.628906 123.578125 291.632812 123.332031 C 291.390625 123.269531 291.144531 123.210938 290.902344 123.15625 C 290.859375 122.816406 290.839844 122.480469 290.820312 122.152344 Z M 286.414062 130.050781 C 286.40625 130.050781 286.40625 130.042969 286.398438 130.042969 C 286.363281 130 286.316406 129.960938 286.28125 129.917969 C 286.140625 129.765625 286 129.613281 285.875 129.453125 C 285.601562 129.117188 285.347656 128.769531 285.113281 128.398438 C 284.667969 127.695312 284.300781 126.941406 283.933594 126.199219 C 283.917969 126.171875 283.886719 126.191406 283.894531 126.21875 C 284.046875 127.074219 284.390625 127.859375 284.847656 128.601562 C 285 128.851562 285.164062 129.085938 285.328125 129.320312 C 284.726562 128.902344 284.140625 128.449219 283.589844 127.976562 C 283.449219 127.855469 283.316406 127.734375 283.179688 127.605469 C 283.0625 127.308594 282.960938 127.011719 282.867188 126.707031 C 282.671875 126.070312 282.539062 125.40625 282.417969 124.753906 C 282.402344 124.683594 282.296875 124.703125 282.296875 124.773438 C 282.265625 125.464844 282.359375 126.128906 282.523438 126.800781 C 282.542969 126.878906 282.570312 126.949219 282.585938 127.015625 C 282.25 126.644531 281.960938 126.242188 281.75 125.792969 C 281.253906 124.703125 281.761719 123.695312 282.875 123.308594 C 284.035156 122.90625 285.417969 123.238281 286.597656 123.414062 C 287.757812 123.59375 288.910156 123.808594 290.054688 124.0625 C 290.140625 125.253906 290.261719 126.453125 290.429688 127.640625 C 289.722656 128.28125 289.046875 128.9375 288.386719 129.617188 C 288.050781 129.960938 287.71875 130.308594 287.402344 130.664062 C 287.066406 130.460938 286.734375 130.257812 286.414062 130.050781 Z M 287.796875 139.171875 C 286.964844 139.429688 286.027344 139.660156 285.15625 139.488281 C 283.976562 139.253906 283.570312 138.125 283.886719 137.046875 C 283.988281 136.714844 284.128906 136.398438 284.308594 136.09375 C 284.527344 136.203125 284.769531 136.273438 285.03125 136.257812 C 285.992188 136.214844 286.292969 135.144531 286.121094 134.335938 C 286.121094 134.324219 286.121094 134.3125 286.113281 134.304688 C 286.089844 134.160156 286.050781 134.019531 285.992188 133.886719 C 286.519531 133.238281 287.054688 132.617188 287.605469 131.996094 C 288.015625 132.238281 288.429688 132.460938 288.855469 132.667969 C 288.855469 132.71875 288.878906 132.769531 288.9375 132.796875 C 289.832031 133.1875 290.738281 133.5625 291.652344 133.925781 C 291.855469 134.730469 292.082031 135.535156 292.324219 136.328125 C 292.394531 136.570312 292.46875 136.804688 292.554688 137.039062 C 291.03125 137.875 289.449219 138.664062 287.796875 139.171875 Z M 297.09375 143.808594 C 295.992188 143.222656 295.527344 141.910156 295.078125 140.824219 C 294.625 139.734375 294.214844 138.632812 293.835938 137.519531 C 294.207031 137.304688 294.578125 137.078125 294.945312 136.835938 C 294.988281 136.863281 295.046875 136.867188 295.089844 136.828125 C 295.605469 136.449219 296.125 136.0625 296.632812 135.675781 C 296.65625 135.683594 296.675781 135.6875 296.699219 135.699219 C 298.007812 136.09375 299.328125 136.441406 300.660156 136.703125 C 300.652344 136.964844 300.644531 137.222656 300.628906 137.484375 C 300.628906 137.484375 300.628906 137.488281 300.628906 137.488281 C 300.488281 137.820312 300.324219 138.148438 300.132812 138.453125 C 300.03125 138.617188 299.917969 138.769531 299.796875 138.921875 C 299.796875 138.917969 299.789062 138.910156 299.785156 138.910156 C 299.765625 138.910156 299.765625 138.9375 299.777344 138.941406 C 299.449219 139.355469 299.074219 139.730469 298.730469 140.128906 C 298.710938 140.148438 298.730469 140.191406 298.761719 140.179688 C 299.464844 139.894531 300 139.292969 300.425781 138.683594 C 300.476562 138.605469 300.519531 138.53125 300.5625 138.453125 C 300.5625 138.453125 300.5625 138.460938 300.5625 138.460938 C 300.570312 138.464844 300.5625 138.464844 300.5625 138.464844 C 300.511719 139.101562 300.429688 139.734375 300.316406 140.363281 C 300.164062 140.6875 299.980469 141.003906 299.769531 141.289062 C 299.332031 141.890625 298.757812 142.386719 298.191406 142.867188 C 298.167969 142.886719 298.191406 142.933594 298.222656 142.917969 C 298.972656 142.679688 299.566406 142.15625 300.054688 141.550781 C 299.632812 143.007812 298.757812 144.6875 297.09375 143.808594 Z M 308.957031 135.332031 C 308.539062 135.714844 308.03125 135.949219 307.484375 136.09375 C 307.414062 135.988281 307.320312 135.886719 307.21875 135.796875 C 306.75 135.398438 306.101562 135.160156 305.480469 135.207031 C 305.183594 135.230469 304.882812 135.300781 304.628906 135.464844 C 304.324219 135.667969 304.148438 135.960938 304.089844 136.308594 C 303.296875 136.277344 302.503906 136.214844 301.71875 136.121094 L 301.71875 136.09375 C 301.726562 135.25 301.710938 134.414062 301.660156 133.570312 C 301.707031 133.539062 301.738281 133.5 301.730469 133.4375 C 301.65625 132.820312 301.574219 132.199219 301.484375 131.585938 C 302.339844 130.792969 303.160156 129.980469 303.9375 129.125 C 303.988281 129.167969 304.046875 129.210938 304.097656 129.257812 C 304.390625 129.527344 304.660156 129.828125 304.921875 130.132812 C 305.441406 130.726562 305.886719 131.40625 306.277344 132.097656 C 306.316406 132.160156 306.425781 132.117188 306.398438 132.046875 C 306.265625 131.660156 306.113281 131.28125 305.90625 130.925781 C 305.695312 130.5625 305.453125 130.21875 305.199219 129.898438 C 305.097656 129.765625 304.984375 129.636719 304.871094 129.511719 C 304.871094 129.511719 304.878906 129.511719 304.878906 129.511719 C 305.46875 129.828125 306.039062 130.164062 306.609375 130.507812 C 306.875 130.792969 307.128906 131.097656 307.375 131.40625 C 307.890625 132.058594 308.347656 132.769531 308.753906 133.492188 C 308.785156 133.542969 308.875 133.511719 308.847656 133.457031 C 308.539062 132.664062 308.136719 131.941406 307.636719 131.253906 C 307.574219 131.164062 307.503906 131.089844 307.441406 131 C 307.441406 131 307.445312 131.007812 307.445312 131.007812 C 308.164062 131.425781 308.910156 131.890625 309.414062 132.523438 C 310.136719 133.441406 309.761719 134.597656 308.957031 135.332031 Z M 308.957031 135.332031 " fill-opacity="1" fill-rule="nonzero"/></g><path fill="#ffffff" d="M 296.390625 131.722656 C 296.5625 131.761719 296.738281 131.773438 296.910156 131.75 C 297.113281 131.71875 297.328125 131.558594 297.457031 131.40625 C 297.734375 131.089844 297.855469 130.710938 297.867188 130.289062 C 297.894531 129.492188 297.5 128.671875 296.859375 128.195312 C 296.179688 127.695312 295.167969 127.695312 294.492188 128.210938 C 293.851562 128.703125 293.566406 129.5625 293.75 130.339844 C 294.003906 131.445312 295.324219 132.277344 296.390625 131.722656 Z M 294.777344 128.863281 C 294.886719 128.753906 294.949219 128.71875 295.109375 128.628906 C 295.152344 128.601562 295.179688 128.597656 295.269531 128.570312 C 295.304688 128.558594 295.34375 128.550781 295.386719 128.539062 C 295.40625 128.535156 295.417969 128.535156 295.4375 128.527344 C 295.453125 128.527344 295.457031 128.519531 295.464844 128.519531 C 295.464844 128.519531 295.46875 128.519531 295.46875 128.519531 C 295.640625 128.5 295.820312 128.507812 295.964844 128.539062 C 296.035156 128.550781 296.105469 128.578125 296.175781 128.597656 C 296.226562 128.617188 296.167969 128.589844 296.230469 128.621094 C 296.269531 128.640625 296.308594 128.660156 296.347656 128.6875 C 296.484375 128.769531 296.523438 128.800781 296.648438 128.925781 C 296.675781 128.953125 296.699219 128.984375 296.726562 129.015625 C 296.769531 129.066406 296.734375 129.023438 296.765625 129.058594 C 296.808594 129.125 296.851562 129.1875 296.886719 129.257812 C 296.902344 129.289062 296.921875 129.328125 296.9375 129.363281 C 296.96875 129.433594 296.941406 129.363281 296.960938 129.414062 C 296.988281 129.484375 297.011719 129.5625 297.039062 129.636719 C 297.054688 129.714844 297.074219 129.789062 297.089844 129.867188 C 297.089844 129.878906 297.089844 129.878906 297.09375 129.882812 C 297.09375 129.890625 297.09375 129.890625 297.09375 129.898438 C 297.101562 129.941406 297.101562 129.984375 297.105469 130.03125 C 297.113281 130.117188 297.105469 130.203125 297.101562 130.289062 C 297.101562 130.308594 297.09375 130.320312 297.09375 130.339844 C 297.09375 130.339844 297.09375 130.347656 297.09375 130.347656 C 297.089844 130.386719 297.082031 130.417969 297.070312 130.457031 C 297.054688 130.492188 297.050781 130.539062 297.039062 130.574219 C 297.03125 130.589844 297.019531 130.632812 297.003906 130.660156 C 296.992188 130.683594 296.96875 130.742188 296.972656 130.742188 C 296.972656 130.746094 296.96875 130.765625 296.960938 130.777344 C 296.953125 130.796875 296.929688 130.847656 296.921875 130.859375 C 296.886719 130.929688 296.839844 130.996094 296.796875 131.058594 C 296.789062 131.070312 296.75 131.121094 296.75 131.128906 C 296.726562 131.160156 296.699219 131.183594 296.675781 131.210938 C 296.5625 131.34375 296.484375 131.484375 296.359375 131.601562 C 295.875 131.597656 295.386719 131.351562 295.015625 131.0625 C 294.894531 130.976562 294.726562 130.816406 294.664062 130.726562 C 294.621094 130.664062 294.578125 130.601562 294.539062 130.539062 C 294.519531 130.5 294.5 130.46875 294.480469 130.429688 C 294.480469 130.429688 294.476562 130.417969 294.46875 130.40625 C 294.460938 130.390625 294.449219 130.347656 294.449219 130.347656 C 294.273438 129.820312 294.390625 129.242188 294.777344 128.863281 Z M 294.777344 128.863281 " fill-opacity="1" fill-rule="nonzero"/><path fill="#ffffff" d="M 308.289062 124.472656 C 308.148438 124.707031 307.992188 124.9375 307.820312 125.144531 C 307.660156 125.34375 307.472656 125.519531 307.324219 125.730469 C 307.207031 125.90625 307.441406 126.128906 307.617188 126.023438 C 308.0625 125.742188 308.410156 125.191406 308.664062 124.738281 C 308.941406 124.25 309.152344 123.710938 309.285156 123.167969 C 309.550781 122.070312 309.507812 120.910156 309.140625 119.835938 C 309.070312 119.648438 308.773438 119.722656 308.828125 119.917969 C 309.144531 120.933594 309.164062 122.027344 308.886719 123.054688 C 308.746094 123.554688 308.550781 124.03125 308.289062 124.472656 Z M 308.289062 124.472656 " fill-opacity="1" fill-rule="nonzero"/><path fill="#ffffff" d="M 306.984375 126.484375 C 306.953125 126.496094 306.917969 126.503906 306.886719 126.515625 C 306.824219 126.542969 306.792969 126.585938 306.753906 126.644531 C 306.710938 126.707031 306.667969 126.769531 306.628906 126.832031 C 306.546875 126.964844 306.457031 127.09375 306.363281 127.214844 C 306.261719 127.339844 306.144531 127.449219 306.042969 127.570312 C 305.9375 127.691406 305.824219 127.808594 305.703125 127.917969 C 305.644531 127.96875 305.722656 128.050781 305.785156 128.027344 C 305.9375 127.957031 306.082031 127.875 306.222656 127.785156 C 306.367188 127.695312 306.496094 127.570312 306.617188 127.449219 C 306.742188 127.320312 306.855469 127.1875 306.957031 127.050781 C 307.007812 126.984375 307.046875 126.914062 307.085938 126.847656 C 307.117188 126.796875 307.140625 126.746094 307.136719 126.679688 C 307.136719 126.636719 307.117188 126.597656 307.109375 126.554688 C 307.089844 126.503906 307.035156 126.472656 306.984375 126.484375 Z M 306.984375 126.484375 " fill-opacity="1" fill-rule="nonzero"/><path fill="#ffffff" d="M 296.339844 114.960938 C 296.511719 115.078125 296.667969 115.214844 296.820312 115.351562 C 297.121094 115.625 297.40625 115.921875 297.644531 116.253906 C 298.128906 116.914062 298.40625 117.675781 298.757812 118.402344 C 298.769531 118.429688 298.808594 118.417969 298.808594 118.390625 C 298.851562 117.539062 298.445312 116.714844 297.96875 116.03125 C 297.730469 115.675781 297.449219 115.339844 297.125 115.054688 C 296.972656 114.914062 296.816406 114.789062 296.648438 114.667969 C 296.492188 114.546875 296.277344 114.355469 296.074219 114.324219 C 295.933594 114.304688 295.75 114.453125 295.863281 114.597656 C 295.984375 114.757812 296.179688 114.84375 296.339844 114.960938 Z M 296.339844 114.960938 " fill-opacity="1" fill-rule="nonzero"/><g clip-path="url(#b5d89ccaaf)"><path fill="#ffffff" d="M 294.289062 113.621094 C 294.390625 113.632812 294.488281 113.660156 294.582031 113.691406 C 294.683594 113.730469 294.785156 113.746094 294.886719 113.785156 C 294.929688 113.804688 294.9375 113.804688 294.996094 113.835938 C 295.039062 113.863281 295.089844 113.886719 295.132812 113.914062 C 295.152344 113.925781 295.179688 113.933594 295.199219 113.945312 C 295.210938 113.949219 295.21875 113.957031 295.203125 113.945312 C 295.234375 113.957031 295.269531 113.976562 295.300781 113.988281 C 295.363281 114.007812 295.417969 113.988281 295.476562 113.96875 C 295.515625 113.957031 295.535156 113.925781 295.539062 113.886719 C 295.546875 113.832031 295.546875 113.765625 295.515625 113.714844 C 295.476562 113.660156 295.402344 113.59375 295.34375 113.5625 C 295.234375 113.507812 295.117188 113.460938 294.996094 113.4375 C 294.886719 113.410156 294.761719 113.378906 294.644531 113.390625 C 294.527344 113.40625 294.410156 113.429688 294.296875 113.46875 C 294.222656 113.488281 294.203125 113.609375 294.289062 113.621094 Z M 294.289062 113.621094 " fill-opacity="1" fill-rule="nonzero"/></g><path fill="#ffffff" d="M 289.464844 140.210938 C 289.050781 140.285156 288.691406 140.484375 288.296875 140.617188 C 287.882812 140.757812 287.464844 140.851562 287.035156 140.921875 C 286.601562 140.992188 286.171875 141.035156 285.734375 141.078125 C 285.316406 141.117188 284.898438 141.144531 284.496094 141.277344 C 284.472656 141.28125 284.472656 141.320312 284.496094 141.328125 C 284.914062 141.441406 285.347656 141.441406 285.777344 141.429688 C 286.234375 141.417969 286.691406 141.382812 287.140625 141.316406 C 287.585938 141.25 288.023438 141.148438 288.449219 141.011719 C 288.867188 140.871094 289.273438 140.726562 289.558594 140.371094 C 289.621094 140.300781 289.566406 140.191406 289.464844 140.210938 Z M 289.464844 140.210938 " fill-opacity="1" fill-rule="nonzero"/><path fill="#ffffff" d="M 291.15625 139.570312 C 291.023438 139.664062 290.882812 139.753906 290.738281 139.824219 C 290.707031 139.84375 290.667969 139.855469 290.636719 139.875 C 290.617188 139.882812 290.597656 139.894531 290.582031 139.898438 C 290.582031 139.898438 290.574219 139.898438 290.574219 139.898438 C 290.566406 139.898438 290.542969 139.914062 290.546875 139.914062 C 290.503906 139.933594 290.453125 139.945312 290.410156 139.96875 C 290.371094 139.988281 290.339844 140.015625 290.308594 140.035156 C 290.242188 140.070312 290.140625 140.167969 290.15625 140.253906 C 290.167969 140.351562 290.320312 140.382812 290.402344 140.375 C 290.445312 140.371094 290.484375 140.363281 290.53125 140.355469 C 290.585938 140.34375 290.636719 140.324219 290.6875 140.300781 C 290.765625 140.261719 290.832031 140.222656 290.902344 140.183594 C 291.070312 140.089844 291.226562 139.976562 291.378906 139.847656 C 291.441406 139.792969 291.441406 139.683594 291.390625 139.621094 C 291.335938 139.558594 291.226562 139.519531 291.15625 139.570312 Z M 291.15625 139.570312 " fill-opacity="1" fill-rule="nonzero"/><path fill="#ffffff" d="M 302.339844 139.34375 C 302.417969 140.183594 302.328125 141.042969 302.09375 141.855469 C 301.980469 142.265625 301.820312 142.664062 301.625 143.046875 C 301.464844 143.355469 301.128906 143.710938 301.128906 144.066406 C 301.128906 144.117188 301.179688 144.15625 301.222656 144.136719 C 301.589844 144.023438 301.800781 143.507812 301.960938 143.191406 C 302.15625 142.792969 302.320312 142.375 302.433594 141.941406 C 302.667969 141.078125 302.703125 140.183594 302.570312 139.304688 C 302.542969 139.183594 302.328125 139.214844 302.339844 139.34375 Z M 302.339844 139.34375 " fill-opacity="1" fill-rule="nonzero"/><g clip-path="url(#8d4ed5aa11)"><path fill="#ffffff" d="M 300.683594 144.460938 C 300.644531 144.460938 300.601562 144.460938 300.5625 144.460938 C 300.519531 144.460938 300.480469 144.472656 300.4375 144.484375 C 300.386719 144.5 300.335938 144.511719 300.292969 144.535156 C 300.253906 144.554688 300.214844 144.574219 300.175781 144.59375 C 300.101562 144.632812 300.03125 144.671875 299.957031 144.707031 C 299.9375 144.714844 299.917969 144.726562 299.90625 144.734375 C 299.871094 144.753906 299.847656 144.777344 299.820312 144.808594 C 299.796875 144.839844 299.777344 144.871094 299.753906 144.898438 C 299.707031 144.957031 299.765625 145.039062 299.835938 145.039062 C 299.871094 145.039062 299.917969 145.039062 299.957031 145.039062 C 300.011719 145.039062 300.054688 145.011719 300.113281 144.988281 C 300.191406 144.949219 300.265625 144.910156 300.347656 144.871094 C 300.386719 144.855469 300.425781 144.839844 300.460938 144.816406 C 300.5 144.796875 300.53125 144.765625 300.5625 144.738281 C 300.609375 144.707031 300.648438 144.675781 300.679688 144.636719 C 300.703125 144.605469 300.722656 144.574219 300.746094 144.550781 C 300.765625 144.519531 300.730469 144.460938 300.683594 144.460938 Z M 300.683594 144.460938 " fill-opacity="1" fill-rule="nonzero"/></g><path fill="#ffffff" d="M 306.023438 120.292969 C 306.070312 120.453125 306.140625 120.605469 306.183594 120.761719 C 306.265625 121.074219 306.316406 121.398438 306.3125 121.726562 C 306.3125 121.816406 306.363281 121.890625 306.429688 121.9375 C 306.515625 121.988281 306.597656 121.980469 306.679688 121.9375 C 306.753906 121.898438 306.800781 121.808594 306.800781 121.726562 C 306.800781 121.351562 306.742188 120.980469 306.609375 120.628906 C 306.539062 120.453125 306.46875 120.269531 306.347656 120.121094 C 306.296875 120.050781 306.242188 119.988281 306.175781 119.925781 C 306.113281 119.863281 306.058594 119.824219 305.96875 119.800781 C 305.9375 119.785156 305.90625 119.816406 305.90625 119.84375 C 305.90625 119.933594 305.917969 119.996094 305.949219 120.078125 C 305.980469 120.148438 306.007812 120.222656 306.023438 120.292969 Z M 306.023438 120.292969 " fill-opacity="1" fill-rule="nonzero"/><path fill="#ffffff" d="M 296.289062 129.445312 C 296.296875 129.503906 296.308594 129.546875 296.320312 129.597656 C 296.328125 129.617188 296.332031 129.644531 296.332031 129.664062 C 296.332031 129.675781 296.339844 129.679688 296.339844 129.695312 C 296.339844 129.699219 296.339844 129.699219 296.339844 129.699219 C 296.347656 129.789062 296.351562 129.878906 296.351562 129.96875 C 296.351562 129.992188 296.351562 130.011719 296.347656 130.03125 C 296.347656 130.042969 296.347656 130.050781 296.347656 130.0625 C 296.339844 130.105469 296.328125 130.152344 296.3125 130.195312 C 296.289062 130.296875 296.351562 130.421875 296.453125 130.449219 C 296.554688 130.472656 296.683594 130.417969 296.707031 130.308594 C 296.707031 130.304688 296.707031 130.296875 296.714844 130.289062 C 296.714844 130.289062 296.714844 130.285156 296.714844 130.285156 C 296.765625 130.070312 296.769531 129.847656 296.699219 129.636719 C 296.664062 129.527344 296.625 129.410156 296.542969 129.332031 C 296.472656 129.261719 296.390625 129.207031 296.308594 129.148438 C 296.257812 129.117188 296.210938 129.179688 296.230469 129.226562 C 296.269531 129.292969 296.28125 129.371094 296.289062 129.445312 Z M 296.636719 130.074219 C 296.632812 130.074219 296.632812 130.066406 296.625 130.066406 C 296.648438 130.074219 296.648438 130.082031 296.636719 130.074219 Z M 296.582031 130.042969 C 296.574219 130.042969 296.566406 130.042969 296.5625 130.042969 C 296.542969 130.035156 296.542969 130.03125 296.582031 130.042969 Z M 296.582031 130.042969 " fill-opacity="1" fill-rule="nonzero"/><g clip-path="url(#8e0717587c)"><path fill="#ffffff" d="M 57.597656 132.339844 C 56.65625 131.566406 55.558594 130.964844 54.511719 130.355469 C 53.972656 130.042969 53.425781 129.734375 52.871094 129.441406 C 53.523438 128.675781 54.128906 127.882812 54.6875 127.035156 C 55.929688 125.148438 57.359375 122.488281 55.707031 120.390625 C 54.941406 119.417969 53.742188 119.199219 52.597656 119.570312 C 51.367188 119.976562 50.207031 120.703125 49.085938 121.335938 C 48.527344 121.652344 47.976562 121.988281 47.421875 122.332031 C 47.421875 122.332031 47.421875 122.332031 47.414062 122.324219 C 47.03125 121.269531 46.578125 120.230469 46.042969 119.21875 C 45.011719 117.292969 43.445312 114.964844 40.925781 115.316406 C 39.324219 115.539062 38.765625 116.769531 38.566406 118.15625 C 38.371094 118.128906 38.175781 118.136719 37.988281 118.1875 C 37.367188 118.347656 37.082031 118.9375 37.011719 119.539062 C 36.949219 120.125 37.378906 120.597656 37.855469 120.863281 C 38.042969 120.96875 38.25 121.058594 38.460938 121.121094 C 38.460938 122.121094 38.484375 123.128906 38.539062 124.132812 C 37.792969 123.972656 37.054688 123.835938 36.308594 123.707031 C 35.042969 123.488281 33.667969 123.183594 32.367188 123.277344 C 31.261719 123.355469 30.09375 123.828125 29.535156 124.855469 C 28.933594 125.96875 29.328125 127.214844 30.027344 128.179688 C 31.34375 129.996094 33.417969 131.324219 35.316406 132.46875 C 34.992188 132.828125 34.675781 133.195312 34.371094 133.5625 C 34.222656 133.734375 34.070312 133.917969 33.921875 134.097656 C 33.878906 134.070312 33.84375 134.054688 33.796875 134.035156 C 33.3125 133.828125 32.722656 133.78125 32.238281 134.003906 C 31.679688 134.253906 31.363281 134.960938 31.585938 135.539062 C 31.710938 135.855469 31.941406 136.136719 32.1875 136.382812 C 32.125 136.484375 32.066406 136.582031 32.007812 136.683594 C 31.425781 137.726562 31.167969 139.070312 31.808594 140.15625 C 32.386719 141.125 33.5 141.472656 34.574219 141.4375 C 35.667969 141.398438 36.746094 141.0625 37.757812 140.667969 C 38.902344 140.21875 40.019531 139.691406 41.101562 139.113281 C 41.199219 139.054688 41.300781 139.007812 41.398438 138.949219 C 41.65625 139.691406 41.929688 140.421875 42.214844 141.144531 C 42.699219 142.367188 43.144531 143.730469 44.035156 144.726562 C 44.773438 145.550781 45.96875 146.085938 47.074219 145.742188 C 48.050781 145.445312 48.675781 144.589844 49.0625 143.6875 C 49.839844 141.890625 49.996094 139.769531 50.039062 137.792969 C 50.835938 137.917969 51.636719 138.011719 52.445312 138.050781 C 52.617188 138.609375 53.058594 139.085938 53.613281 139.292969 C 54.402344 139.585938 55.378906 139.1875 55.695312 138.390625 C 55.699219 138.390625 55.699219 138.390625 55.699219 138.386719 C 55.835938 138.199219 55.910156 137.992188 55.925781 137.78125 C 57.308594 137.414062 58.511719 136.625 58.796875 135.054688 C 58.976562 133.953125 58.421875 133.007812 57.597656 132.339844 Z M 41.988281 137.429688 C 41.765625 136.738281 41.554688 136.042969 41.355469 135.347656 C 42.257812 135.683594 43.164062 136 44.070312 136.289062 C 43.375 136.664062 42.679688 137.050781 41.988281 137.429688 Z M 39.503906 125.421875 C 40.363281 125.621094 41.21875 125.84375 42.066406 126.078125 C 41.292969 126.6875 40.535156 127.324219 39.796875 127.976562 C 39.671875 127.125 39.578125 126.273438 39.503906 125.421875 Z M 48.050781 126.484375 C 48.117188 126.726562 48.179688 126.96875 48.234375 127.214844 C 46.882812 126.636719 45.507812 126.121094 44.117188 125.65625 C 45.085938 124.917969 46.078125 124.214844 47.105469 123.554688 C 47.472656 124.519531 47.78125 125.5 48.050781 126.484375 Z M 48.503906 128.324219 C 48.726562 129.304688 48.925781 130.285156 49.117188 131.273438 C 49.125 131.671875 49.117188 132.070312 49.105469 132.476562 C 49.105469 132.476562 49.105469 132.476562 49.105469 132.480469 C 48.0625 133.480469 46.96875 134.425781 45.863281 135.363281 C 45.5 135.5625 45.136719 135.75 44.769531 135.9375 C 43.5625 135.589844 42.371094 135.183594 41.1875 134.769531 C 40.683594 132.921875 40.28125 131.058594 39.96875 129.175781 C 41 128.210938 42.066406 127.292969 43.164062 126.414062 C 44.980469 126.949219 46.761719 127.582031 48.503906 128.324219 Z M 39.988281 134.160156 C 38.964844 133.539062 37.960938 132.855469 36.929688 132.246094 C 36.925781 132.238281 36.917969 132.238281 36.914062 132.230469 C 37.640625 131.449219 38.386719 130.683594 39.148438 129.945312 C 39.375 131.367188 39.652344 132.773438 39.988281 134.160156 Z M 49.085938 133.257812 C 49.058594 134.054688 49.027344 134.84375 49.027344 135.632812 C 49.027344 136.046875 49.027344 136.464844 49.011719 136.882812 C 47.863281 136.699219 46.726562 136.453125 45.613281 136.160156 C 46.800781 135.226562 47.960938 134.269531 49.085938 133.257812 Z M 49.113281 128.582031 C 49.96875 128.957031 50.808594 129.355469 51.640625 129.785156 C 51.027344 130.515625 50.378906 131.21875 49.703125 131.898438 C 49.527344 130.785156 49.335938 129.679688 49.113281 128.582031 Z M 50.605469 121.472656 C 51.578125 120.9375 52.890625 120.019531 54.058594 120.269531 C 55.078125 120.492188 55.601562 121.636719 55.605469 122.59375 C 55.613281 123.8125 54.984375 124.9375 54.382812 125.949219 C 53.738281 127.035156 53.003906 128.085938 52.207031 129.085938 C 51.113281 128.515625 50 127.980469 48.875 127.488281 C 48.8125 127.210938 48.746094 126.925781 48.675781 126.644531 C 48.398438 125.46875 48.082031 124.308594 47.703125 123.175781 C 48.652344 122.574219 49.617188 122.015625 50.605469 121.472656 Z M 39.359375 123.351562 C 39.328125 122.625 39.316406 121.902344 39.3125 121.183594 C 39.460938 121.136719 39.601562 121.070312 39.734375 120.964844 C 40.230469 120.746094 40.679688 120.273438 40.523438 119.691406 C 40.453125 119.433594 40.304688 119.207031 40.132812 119.011719 C 40.042969 118.917969 39.953125 118.832031 39.851562 118.757812 C 39.820312 118.734375 39.785156 118.707031 39.746094 118.675781 L 39.722656 118.652344 C 39.710938 118.640625 39.691406 118.628906 39.679688 118.621094 C 39.621094 118.578125 39.566406 118.539062 39.503906 118.503906 C 39.460938 118.472656 39.417969 118.445312 39.367188 118.421875 C 39.417969 117.730469 39.574219 117.042969 40.070312 116.589844 C 40.828125 115.898438 42.046875 116.066406 42.855469 116.5625 C 43.417969 116.90625 43.875 117.390625 44.253906 117.925781 C 44.257812 117.929688 44.257812 117.9375 44.265625 117.9375 C 43.855469 117.707031 43.425781 117.496094 42.992188 117.316406 C 42.886719 117.273438 42.808594 117.453125 42.917969 117.496094 C 43.433594 117.726562 43.933594 118 44.40625 118.308594 C 44.488281 118.359375 44.5625 118.421875 44.644531 118.476562 C 44.769531 118.671875 44.886719 118.871094 45 119.070312 C 45.414062 119.777344 45.800781 120.503906 46.148438 121.257812 C 46.148438 121.257812 46.148438 121.261719 46.152344 121.261719 C 46.0625 121.195312 45.972656 121.125 45.878906 121.058594 C 45.148438 120.542969 44.371094 120.117188 43.53125 119.808594 C 43.488281 119.789062 43.457031 119.863281 43.5 119.890625 C 44.257812 120.285156 45.003906 120.734375 45.699219 121.242188 C 45.949219 121.425781 46.183594 121.617188 46.414062 121.816406 C 46.550781 122.113281 46.675781 122.417969 46.800781 122.722656 C 45.527344 123.53125 44.277344 124.402344 43.070312 125.316406 C 42.109375 125.015625 41.132812 124.75 40.15625 124.507812 C 39.921875 124.445312 39.679688 124.390625 39.441406 124.332031 C 39.398438 124.003906 39.378906 123.675781 39.359375 123.351562 Z M 35.042969 131.089844 C 35.035156 131.089844 35.035156 131.082031 35.027344 131.082031 C 34.992188 131.039062 34.949219 131 34.910156 130.957031 C 34.773438 130.808594 34.636719 130.660156 34.511719 130.503906 C 34.246094 130.175781 33.996094 129.832031 33.765625 129.472656 C 33.332031 128.78125 32.972656 128.042969 32.613281 127.316406 C 32.597656 127.292969 32.566406 127.308594 32.574219 127.335938 C 32.722656 128.171875 33.058594 128.945312 33.507812 129.671875 C 33.65625 129.914062 33.816406 130.144531 33.980469 130.375 C 33.386719 129.964844 32.816406 129.523438 32.277344 129.054688 C 32.140625 128.9375 32.007812 128.820312 31.871094 128.695312 C 31.761719 128.402344 31.660156 128.113281 31.566406 127.8125 C 31.375 127.191406 31.242188 126.539062 31.125 125.898438 C 31.113281 125.832031 31.007812 125.847656 31.007812 125.917969 C 30.976562 126.59375 31.070312 127.246094 31.230469 127.90625 C 31.25 127.980469 31.273438 128.050781 31.292969 128.117188 C 30.964844 127.75 30.679688 127.359375 30.472656 126.917969 C 29.988281 125.847656 30.484375 124.859375 31.574219 124.480469 C 32.710938 124.089844 34.066406 124.414062 35.222656 124.585938 C 36.359375 124.761719 37.492188 124.972656 38.609375 125.222656 C 38.695312 126.390625 38.8125 127.566406 38.976562 128.726562 C 38.285156 129.355469 37.621094 130 36.972656 130.667969 C 36.644531 131 36.320312 131.34375 36.011719 131.691406 C 35.683594 131.492188 35.359375 131.292969 35.042969 131.089844 Z M 36.394531 140.027344 C 35.582031 140.28125 34.664062 140.503906 33.8125 140.335938 C 32.65625 140.105469 32.257812 139 32.566406 137.945312 C 32.667969 137.621094 32.804688 137.308594 32.976562 137.011719 C 33.195312 137.117188 33.433594 137.1875 33.6875 137.171875 C 34.632812 137.128906 34.921875 136.078125 34.753906 135.289062 C 34.753906 135.277344 34.753906 135.265625 34.75 135.257812 C 34.722656 135.117188 34.6875 134.980469 34.632812 134.847656 C 35.148438 134.214844 35.667969 133.605469 36.210938 132.996094 C 36.613281 133.234375 37.019531 133.449219 37.433594 133.65625 C 37.433594 133.707031 37.460938 133.753906 37.515625 133.78125 C 38.390625 134.164062 39.28125 134.53125 40.175781 134.886719 C 40.375 135.675781 40.597656 136.464844 40.835938 137.242188 C 40.902344 137.476562 40.976562 137.707031 41.058594 137.9375 C 39.566406 138.757812 38.019531 139.527344 36.394531 140.027344 Z M 45.507812 144.570312 C 44.425781 143.996094 43.972656 142.710938 43.53125 141.648438 C 43.089844 140.578125 42.6875 139.496094 42.3125 138.410156 C 42.679688 138.199219 43.039062 137.976562 43.402344 137.738281 C 43.445312 137.765625 43.5 137.769531 43.542969 137.734375 C 44.046875 137.359375 44.558594 136.980469 45.054688 136.601562 C 45.078125 136.609375 45.097656 136.613281 45.121094 136.625 C 46.402344 137.011719 47.695312 137.355469 49 137.609375 C 48.996094 137.863281 48.988281 138.117188 48.96875 138.371094 C 48.96875 138.371094 48.96875 138.378906 48.96875 138.378906 C 48.832031 138.703125 48.671875 139.023438 48.484375 139.324219 C 48.386719 139.484375 48.273438 139.632812 48.15625 139.785156 C 48.15625 139.777344 48.148438 139.769531 48.144531 139.769531 C 48.125 139.769531 48.125 139.796875 48.136719 139.800781 C 47.8125 140.207031 47.445312 140.574219 47.109375 140.964844 C 47.09375 140.984375 47.109375 141.027344 47.140625 141.015625 C 47.832031 140.734375 48.355469 140.144531 48.769531 139.546875 C 48.820312 139.472656 48.863281 139.398438 48.90625 139.324219 C 48.90625 139.324219 48.90625 139.328125 48.90625 139.328125 C 48.914062 139.335938 48.90625 139.335938 48.90625 139.335938 C 48.859375 139.957031 48.777344 140.578125 48.664062 141.195312 C 48.515625 141.511719 48.335938 141.820312 48.128906 142.101562 C 47.703125 142.691406 47.136719 143.175781 46.582031 143.648438 C 46.558594 143.667969 46.582031 143.710938 46.613281 143.699219 C 47.347656 143.464844 47.933594 142.953125 48.410156 142.355469 C 47.992188 143.785156 47.136719 145.433594 45.507812 144.570312 Z M 57.128906 136.265625 C 56.71875 136.640625 56.222656 136.867188 55.6875 137.011719 C 55.621094 136.90625 55.527344 136.804688 55.425781 136.71875 C 54.96875 136.328125 54.332031 136.097656 53.722656 136.140625 C 53.433594 136.167969 53.140625 136.234375 52.890625 136.394531 C 52.59375 136.59375 52.417969 136.882812 52.363281 137.222656 C 51.585938 137.191406 50.808594 137.128906 50.039062 137.035156 L 50.039062 137.011719 C 50.042969 136.183594 50.03125 135.363281 49.984375 134.539062 C 50.027344 134.507812 50.058594 134.46875 50.050781 134.40625 C 49.976562 133.804688 49.894531 133.195312 49.808594 132.59375 C 50.648438 131.816406 51.449219 131.019531 52.214844 130.179688 C 52.261719 130.226562 52.320312 130.269531 52.371094 130.3125 C 52.65625 130.578125 52.921875 130.871094 53.175781 131.167969 C 53.6875 131.753906 54.121094 132.417969 54.507812 133.097656 C 54.542969 133.160156 54.648438 133.113281 54.625 133.046875 C 54.496094 132.667969 54.347656 132.292969 54.140625 131.945312 C 53.933594 131.59375 53.699219 131.257812 53.449219 130.941406 C 53.351562 130.808594 53.238281 130.683594 53.128906 130.558594 C 53.128906 130.558594 53.132812 130.558594 53.132812 130.558594 C 53.710938 130.871094 54.269531 131.199219 54.832031 131.535156 C 55.089844 131.816406 55.339844 132.113281 55.582031 132.417969 C 56.085938 133.058594 56.535156 133.753906 56.929688 134.464844 C 56.960938 134.511719 57.050781 134.480469 57.023438 134.425781 C 56.71875 133.648438 56.328125 132.941406 55.835938 132.269531 C 55.773438 132.183594 55.707031 132.109375 55.644531 132.019531 C 55.644531 132.019531 55.652344 132.027344 55.652344 132.027344 C 56.351562 132.4375 57.085938 132.890625 57.578125 133.511719 C 58.285156 134.414062 57.917969 135.542969 57.128906 136.265625 Z M 57.128906 136.265625 " fill-opacity="1" fill-rule="nonzero"/></g><path fill="#ffffff" d="M 44.816406 132.730469 C 44.984375 132.765625 45.160156 132.777344 45.328125 132.753906 C 45.527344 132.722656 45.738281 132.566406 45.863281 132.417969 C 46.136719 132.109375 46.253906 131.734375 46.265625 131.324219 C 46.289062 130.542969 45.90625 129.738281 45.277344 129.273438 C 44.613281 128.78125 43.617188 128.78125 42.960938 129.285156 C 42.332031 129.769531 42.050781 130.609375 42.234375 131.375 C 42.480469 132.457031 43.773438 133.269531 44.816406 132.730469 Z M 43.238281 129.925781 C 43.34375 129.820312 43.40625 129.785156 43.5625 129.695312 C 43.605469 129.671875 43.628906 129.664062 43.71875 129.640625 C 43.753906 129.628906 43.792969 129.621094 43.835938 129.609375 C 43.855469 129.601562 43.867188 129.601562 43.886719 129.597656 C 43.898438 129.597656 43.90625 129.589844 43.910156 129.589844 C 43.910156 129.589844 43.917969 129.589844 43.917969 129.589844 C 44.085938 129.570312 44.257812 129.578125 44.402344 129.609375 C 44.46875 129.621094 44.539062 129.648438 44.605469 129.664062 C 44.65625 129.683594 44.601562 129.660156 44.664062 129.691406 C 44.699219 129.707031 44.738281 129.726562 44.773438 129.753906 C 44.910156 129.832031 44.949219 129.863281 45.074219 129.988281 C 45.097656 130.011719 45.121094 130.042969 45.148438 130.074219 C 45.191406 130.125 45.152344 130.082031 45.183594 130.117188 C 45.226562 130.179688 45.273438 130.242188 45.300781 130.3125 C 45.320312 130.34375 45.339844 130.378906 45.351562 130.417969 C 45.382812 130.484375 45.359375 130.417969 45.378906 130.46875 C 45.402344 130.535156 45.425781 130.609375 45.453125 130.683594 C 45.46875 130.757812 45.488281 130.832031 45.5 130.910156 C 45.5 130.921875 45.5 130.921875 45.507812 130.925781 C 45.507812 130.933594 45.507812 130.933594 45.507812 130.941406 C 45.515625 130.984375 45.515625 131.027344 45.519531 131.070312 C 45.527344 131.15625 45.519531 131.238281 45.515625 131.324219 C 45.515625 131.34375 45.507812 131.355469 45.507812 131.375 C 45.507812 131.375 45.507812 131.378906 45.507812 131.378906 C 45.5 131.417969 45.496094 131.449219 45.484375 131.488281 C 45.46875 131.523438 45.464844 131.566406 45.453125 131.605469 C 45.445312 131.617188 45.433594 131.660156 45.421875 131.683594 C 45.410156 131.710938 45.382812 131.765625 45.390625 131.765625 C 45.390625 131.773438 45.382812 131.789062 45.378906 131.804688 C 45.371094 131.820312 45.347656 131.871094 45.339844 131.882812 C 45.300781 131.953125 45.257812 132.015625 45.214844 132.078125 C 45.210938 132.089844 45.171875 132.140625 45.171875 132.144531 C 45.148438 132.175781 45.121094 132.203125 45.097656 132.226562 C 44.984375 132.355469 44.910156 132.492188 44.785156 132.613281 C 44.316406 132.605469 43.835938 132.363281 43.46875 132.082031 C 43.351562 131.996094 43.191406 131.839844 43.128906 131.753906 C 43.082031 131.691406 43.039062 131.628906 43.003906 131.566406 C 42.984375 131.53125 42.964844 131.5 42.945312 131.460938 C 42.945312 131.460938 42.941406 131.449219 42.933594 131.4375 C 42.929688 131.425781 42.917969 131.378906 42.917969 131.378906 C 42.742188 130.863281 42.859375 130.300781 43.238281 129.925781 Z M 43.238281 129.925781 " fill-opacity="1" fill-rule="nonzero"/><path fill="#ffffff" d="M 56.476562 125.625 C 56.339844 125.855469 56.183594 126.078125 56.019531 126.285156 C 55.863281 126.476562 55.675781 126.652344 55.53125 126.855469 C 55.414062 127.03125 55.644531 127.246094 55.820312 127.140625 C 56.253906 126.867188 56.59375 126.328125 56.84375 125.886719 C 57.117188 125.40625 57.324219 124.878906 57.453125 124.34375 C 57.714844 123.269531 57.671875 122.132812 57.308594 121.082031 C 57.242188 120.894531 56.949219 120.96875 57.003906 121.164062 C 57.316406 122.15625 57.335938 123.226562 57.0625 124.234375 C 56.925781 124.722656 56.730469 125.191406 56.476562 125.625 Z M 56.476562 125.625 " fill-opacity="1" fill-rule="nonzero"/><path fill="#ffffff" d="M 55.195312 127.597656 C 55.167969 127.609375 55.136719 127.613281 55.105469 127.625 C 55.042969 127.652344 55.011719 127.695312 54.972656 127.75 C 54.929688 127.8125 54.886719 127.875 54.847656 127.9375 C 54.769531 128.066406 54.679688 128.191406 54.589844 128.308594 C 54.488281 128.433594 54.375 128.539062 54.277344 128.660156 C 54.171875 128.777344 54.058594 128.894531 53.941406 129 C 53.886719 129.050781 53.960938 129.132812 54.023438 129.105469 C 54.171875 129.039062 54.316406 128.957031 54.453125 128.871094 C 54.59375 128.78125 54.71875 128.660156 54.835938 128.539062 C 54.960938 128.417969 55.074219 128.285156 55.171875 128.148438 C 55.222656 128.085938 55.257812 128.019531 55.296875 127.949219 C 55.328125 127.898438 55.351562 127.851562 55.347656 127.789062 C 55.347656 127.746094 55.328125 127.707031 55.320312 127.664062 C 55.304688 127.613281 55.246094 127.582031 55.195312 127.597656 Z M 55.195312 127.597656 " fill-opacity="1" fill-rule="nonzero"/><path fill="#ffffff" d="M 44.769531 116.304688 C 44.9375 116.421875 45.089844 116.550781 45.242188 116.6875 C 45.53125 116.957031 45.8125 117.246094 46.046875 117.570312 C 46.519531 118.21875 46.792969 118.964844 47.136719 119.675781 C 47.148438 119.703125 47.1875 119.691406 47.1875 119.664062 C 47.230469 118.832031 46.832031 118.023438 46.367188 117.351562 C 46.128906 117.003906 45.855469 116.675781 45.539062 116.394531 C 45.390625 116.257812 45.234375 116.136719 45.074219 116.015625 C 44.917969 115.898438 44.707031 115.710938 44.507812 115.679688 C 44.371094 115.664062 44.191406 115.804688 44.300781 115.949219 C 44.421875 116.105469 44.613281 116.191406 44.769531 116.304688 Z M 44.769531 116.304688 " fill-opacity="1" fill-rule="nonzero"/><g clip-path="url(#da8f3c04dc)"><path fill="#ffffff" d="M 42.761719 114.992188 C 42.859375 115.003906 42.953125 115.027344 43.046875 115.058594 C 43.144531 115.097656 43.246094 115.117188 43.34375 115.152344 C 43.386719 115.171875 43.394531 115.171875 43.449219 115.203125 C 43.492188 115.226562 43.542969 115.253906 43.585938 115.277344 C 43.605469 115.289062 43.628906 115.296875 43.648438 115.308594 C 43.660156 115.316406 43.667969 115.320312 43.65625 115.308594 C 43.6875 115.320312 43.71875 115.339844 43.75 115.351562 C 43.8125 115.371094 43.867188 115.351562 43.921875 115.332031 C 43.960938 115.320312 43.980469 115.289062 43.984375 115.253906 C 43.992188 115.195312 43.992188 115.132812 43.960938 115.085938 C 43.921875 115.027344 43.847656 114.964844 43.792969 114.9375 C 43.6875 114.878906 43.570312 114.835938 43.449219 114.8125 C 43.34375 114.785156 43.21875 114.753906 43.109375 114.769531 C 42.992188 114.78125 42.878906 114.804688 42.765625 114.84375 C 42.691406 114.859375 42.671875 114.980469 42.761719 114.992188 Z M 42.761719 114.992188 " fill-opacity="1" fill-rule="nonzero"/></g><path fill="#ffffff" d="M 38.03125 141.046875 C 37.628906 141.121094 37.273438 141.3125 36.886719 141.441406 C 36.484375 141.578125 36.074219 141.671875 35.652344 141.742188 C 35.226562 141.808594 34.804688 141.851562 34.375 141.898438 C 33.964844 141.933594 33.554688 141.957031 33.164062 142.089844 C 33.140625 142.09375 33.140625 142.132812 33.164062 142.140625 C 33.574219 142.25 33.996094 142.25 34.421875 142.238281 C 34.867188 142.226562 35.316406 142.195312 35.757812 142.125 C 36.191406 142.066406 36.621094 141.964844 37.035156 141.828125 C 37.445312 141.691406 37.84375 141.546875 38.125 141.199219 C 38.1875 141.132812 38.128906 141.027344 38.03125 141.046875 Z M 38.03125 141.046875 " fill-opacity="1" fill-rule="nonzero"/><path fill="#ffffff" d="M 39.691406 140.417969 C 39.558594 140.511719 39.421875 140.597656 39.28125 140.667969 C 39.25 140.683594 39.210938 140.695312 39.179688 140.714844 C 39.164062 140.722656 39.144531 140.734375 39.125 140.742188 C 39.125 140.742188 39.117188 140.742188 39.117188 140.742188 C 39.113281 140.742188 39.085938 140.753906 39.09375 140.753906 C 39.050781 140.773438 39 140.785156 38.957031 140.808594 C 38.917969 140.828125 38.890625 140.851562 38.859375 140.871094 C 38.796875 140.910156 38.695312 141 38.707031 141.089844 C 38.722656 141.183594 38.871094 141.214844 38.949219 141.207031 C 38.996094 141.199219 39.03125 141.195312 39.074219 141.1875 C 39.132812 141.175781 39.179688 141.15625 39.230469 141.132812 C 39.304688 141.09375 39.375 141.058594 39.441406 141.019531 C 39.601562 140.925781 39.757812 140.816406 39.90625 140.691406 C 39.96875 140.636719 39.96875 140.53125 39.921875 140.46875 C 39.863281 140.40625 39.757812 140.367188 39.691406 140.417969 Z M 39.691406 140.417969 " fill-opacity="1" fill-rule="nonzero"/><path fill="#ffffff" d="M 50.648438 140.195312 C 50.722656 141.019531 50.636719 141.859375 50.40625 142.65625 C 50.292969 143.058594 50.136719 143.449219 49.945312 143.824219 C 49.789062 144.128906 49.460938 144.476562 49.460938 144.824219 C 49.460938 144.875 49.511719 144.910156 49.554688 144.890625 C 49.914062 144.78125 50.121094 144.277344 50.273438 143.964844 C 50.46875 143.574219 50.628906 143.164062 50.742188 142.742188 C 50.972656 141.898438 51.003906 141.019531 50.871094 140.15625 C 50.847656 140.039062 50.636719 140.070312 50.648438 140.195312 Z M 50.648438 140.195312 " fill-opacity="1" fill-rule="nonzero"/><path fill="#ffffff" d="M 49.027344 145.210938 C 48.988281 145.210938 48.945312 145.210938 48.90625 145.210938 C 48.863281 145.210938 48.828125 145.222656 48.78125 145.234375 C 48.734375 145.246094 48.683594 145.257812 48.640625 145.285156 C 48.601562 145.300781 48.566406 145.320312 48.527344 145.339844 C 48.453125 145.378906 48.386719 145.414062 48.3125 145.453125 C 48.292969 145.457031 48.273438 145.46875 48.261719 145.476562 C 48.230469 145.496094 48.207031 145.519531 48.179688 145.550781 C 48.15625 145.582031 48.136719 145.613281 48.113281 145.636719 C 48.070312 145.695312 48.125 145.773438 48.191406 145.773438 C 48.230469 145.773438 48.273438 145.773438 48.3125 145.773438 C 48.367188 145.773438 48.410156 145.75 48.464844 145.726562 C 48.539062 145.6875 48.617188 145.652344 48.695312 145.613281 C 48.734375 145.59375 48.769531 145.582031 48.808594 145.558594 C 48.84375 145.539062 48.875 145.507812 48.90625 145.484375 C 48.949219 145.453125 48.988281 145.421875 49.019531 145.382812 C 49.042969 145.351562 49.0625 145.320312 49.085938 145.296875 C 49.105469 145.265625 49.070312 145.210938 49.027344 145.210938 Z M 49.027344 145.210938 " fill-opacity="1" fill-rule="nonzero"/><path fill="#ffffff" d="M 54.257812 121.53125 C 54.300781 121.683594 54.371094 121.835938 54.414062 121.988281 C 54.496094 122.292969 54.542969 122.609375 54.539062 122.933594 C 54.539062 123.019531 54.589844 123.097656 54.65625 123.140625 C 54.738281 123.1875 54.816406 123.183594 54.898438 123.140625 C 54.972656 123.101562 55.015625 123.015625 55.015625 122.933594 C 55.015625 122.566406 54.960938 122.199219 54.832031 121.859375 C 54.761719 121.683594 54.695312 121.503906 54.574219 121.363281 C 54.527344 121.292969 54.46875 121.230469 54.40625 121.167969 C 54.347656 121.105469 54.289062 121.070312 54.203125 121.046875 C 54.171875 121.03125 54.140625 121.0625 54.140625 121.089844 C 54.140625 121.175781 54.152344 121.238281 54.183594 121.320312 C 54.214844 121.386719 54.238281 121.460938 54.257812 121.53125 Z M 54.257812 121.53125 " fill-opacity="1" fill-rule="nonzero"/><path fill="#ffffff" d="M 44.71875 130.5 C 44.726562 130.554688 44.738281 130.597656 44.75 130.648438 C 44.753906 130.667969 44.761719 130.691406 44.761719 130.710938 C 44.761719 130.722656 44.769531 130.726562 44.769531 130.742188 C 44.769531 130.746094 44.769531 130.746094 44.769531 130.746094 C 44.773438 130.832031 44.78125 130.921875 44.78125 131.007812 C 44.78125 131.03125 44.78125 131.050781 44.773438 131.070312 C 44.773438 131.082031 44.773438 131.089844 44.773438 131.101562 C 44.769531 131.144531 44.753906 131.1875 44.742188 131.230469 C 44.71875 131.332031 44.78125 131.457031 44.878906 131.480469 C 44.980469 131.503906 45.105469 131.449219 45.128906 131.34375 C 45.128906 131.335938 45.128906 131.332031 45.136719 131.324219 C 45.136719 131.324219 45.136719 131.320312 45.136719 131.320312 C 45.183594 131.105469 45.191406 130.890625 45.121094 130.683594 C 45.085938 130.578125 45.046875 130.460938 44.96875 130.386719 C 44.898438 130.316406 44.816406 130.261719 44.738281 130.207031 C 44.6875 130.175781 44.644531 130.238281 44.664062 130.28125 C 44.699219 130.347656 44.710938 130.421875 44.71875 130.5 Z M 45.058594 131.113281 C 45.054688 131.113281 45.054688 131.105469 45.046875 131.105469 C 45.074219 131.113281 45.074219 131.121094 45.058594 131.113281 Z M 45.003906 131.082031 C 45 131.082031 44.992188 131.082031 44.984375 131.082031 C 44.96875 131.078125 44.96875 131.070312 45.003906 131.082031 Z M 45.003906 131.082031 " fill-opacity="1" fill-rule="nonzero"/></g></g></svg>